<svg width="16" height="16" viewBox="0 0 16 16" fill="none" xmlns="http://www.w3.org/2000/svg">
<path fill-rule="evenodd" clip-rule="evenodd" d="M1.5 0C0.671573 0 0 0.671573 0 1.5V7.72414H7.72414V0H1.5ZM14.5 0H8.27589V7.72414H16V1.5C16 0.671573 15.3285 0 14.5 0ZM8.27589 8.27587H16V14.5C16 15.3284 15.3285 16 14.5 16H8.27589V8.27587ZM7.72414 8.27587H0V14.5C0 15.3284 0.671573 16 1.5 16H7.72414V8.27587Z" fill="url(#paint0_linear_125_34384)"/>
<path fill-rule="evenodd" clip-rule="evenodd" d="M1.5 0C0.671573 0 0 0.671573 0 1.5V7.72414H7.72414V0H1.5ZM14.5 0H8.27589V7.72414H16V1.5C16 0.671573 15.3285 0 14.5 0ZM8.27589 8.27587H16V14.5C16 15.3284 15.3285 16 14.5 16H8.27589V8.27587ZM7.72414 8.27587H0V14.5C0 15.3284 0.671573 16 1.5 16H7.72414V8.27587Z" fill="url(#paint1_radial_125_34384)" fill-opacity="0.9"/>
<defs>
<linearGradient id="paint0_linear_125_34384" x1="2.42448" y1="4.29979e-07" x2="12.8487" y2="16" gradientUnits="userSpaceOnUse">
<stop stop-color="#7ADEFF"/>
<stop offset="1" stop-color="#2555FF"/>
</linearGradient>
<radialGradient id="paint1_radial_125_34384" cx="0" cy="0" r="1" gradientUnits="userSpaceOnUse" gradientTransform="translate(3 18.3334) rotate(132.58) scale(16.7498)">
<stop stop-color="#BD00FF"/>
<stop offset="1" stop-color="#BD00FF" stop-opacity="0"/>
</radialGradient>
</defs>
</svg>
