<svg width="24" height="24" viewBox="0 0 1080 1080" fill="none" xmlns="http://www.w3.org/2000/svg">
<path d="M601.145 823.021H576.405L477.918 602.244H531.676C571.82 602.244 604.36 569.715 604.36 529.584C604.36 489.452 571.82 456.923 531.676 456.923H486.892C529.384 424.505 556.836 373.363 556.836 315.793C556.836 217.785 477.359 138.333 379.319 138.333C281.28 138.333 201.803 217.785 201.803 315.793C201.803 373.363 229.255 424.505 271.747 456.923H226.962C186.818 456.923 154.278 489.452 154.278 529.584C154.278 569.715 186.818 602.244 226.962 602.244H271.579L182.234 823.021H157.521C102.561 823.021 58 867.568 58 922.511C58 977.454 102.561 1022 157.521 1022H601.145C656.106 1022 700.667 977.454 700.667 922.511C700.667 867.568 656.106 823.021 601.145 823.021Z" fill="url(#paint0_linear_368_15249)"/>
<path d="M991.467 531.632C971.223 512.674 933.628 444.232 933.628 379.324V280.833C933.628 261.6 941.268 243.154 954.868 229.554L990.813 193.61C995.346 189.077 997.893 182.928 997.893 176.517V82.1731C997.893 68.8226 987.07 58 973.72 58H957.801C944.451 58 933.628 68.8227 933.628 82.1731V98.0918C933.628 111.442 922.805 122.265 909.455 122.265H893.536C880.185 122.265 869.363 111.442 869.363 98.0918V82.1731C869.363 68.8226 858.54 58 845.19 58H829.271C815.92 58 805.098 68.8227 805.098 82.1731V98.0918C805.098 111.442 794.275 122.265 780.924 122.265H765.006C751.655 122.265 740.832 111.442 740.832 98.0918V82.1731C740.832 68.8226 730.01 58 716.659 58H700.74C687.39 58 676.567 68.8227 676.567 82.1731V176.517C676.567 182.928 679.114 189.077 683.647 193.61L719.592 229.554C733.192 243.154 740.832 261.6 740.832 280.833V379.324C740.832 444.232 702.916 512.352 682.994 531.632C671.426 542.557 660.501 555.089 660.501 572.119C660.501 598.789 682.03 620.318 708.7 620.318H965.76C992.43 620.318 1013.96 598.789 1013.96 572.119C1013.96 555.089 1003.03 542.557 991.467 531.632Z" fill="url(#paint1_linear_368_15249)"/>
<path d="M662.331 571.55C662.331 544.849 683.976 523.205 710.676 523.205H968.516C995.216 523.205 1016.86 544.849 1016.86 571.55V571.55C1016.86 598.25 995.216 619.895 968.516 619.895H710.676C683.976 619.895 662.331 598.25 662.331 571.55V571.55Z" fill="url(#paint2_linear_368_15249)"/>
<path d="M58 924.204C58 868.577 103.094 823.483 158.721 823.483H601.894C657.521 823.483 702.616 868.577 702.616 924.204V924.204C702.616 979.831 657.521 1024.93 601.894 1024.93H158.721C103.094 1024.93 58 979.831 58 924.204V924.204Z" fill="url(#paint3_linear_368_15249)"/>
<defs>
<linearGradient id="paint0_linear_368_15249" x1="218.667" y1="921.58" x2="560.081" y2="98.1657" gradientUnits="userSpaceOnUse">
<stop stop-color="#0669BC"/>
<stop offset="1" stop-color="#28AFEA"/>
</linearGradient>
<linearGradient id="paint1_linear_368_15249" x1="1086.54" y1="-12.2897" x2="499.164" y2="548.721" gradientUnits="userSpaceOnUse">
<stop offset="0.354167" stop-color="#9A70D4"/>
<stop offset="1" stop-color="#5E438F"/>
</linearGradient>
<linearGradient id="paint2_linear_368_15249" x1="1089.67" y1="511.118" x2="1054.5" y2="707.02" gradientUnits="userSpaceOnUse">
<stop offset="0.354167" stop-color="#9A70D4"/>
<stop offset="1" stop-color="#5E438F"/>
</linearGradient>
<linearGradient id="paint3_linear_368_15249" x1="219.154" y1="1002.03" x2="239.701" y2="783.992" gradientUnits="userSpaceOnUse">
<stop stop-color="#0669BC"/>
<stop offset="1" stop-color="#28AFEA"/>
</linearGradient>
</defs>
</svg>
